<svg id="Capa_1" data-name="Capa 1" xmlns="http://www.w3.org/2000/svg" viewBox="0 0 2381.10236 2381.10236"><defs><style>.cls-1{fill:#091b39;}.cls-2{fill:#fff;fill-rule:evenodd;}</style></defs><path d="M86.62712,1755.21331v.56073l.64783-.18561C87.275,1755.21331,86.90373,1755.308,86.62712,1755.21331Z"/><rect class="cls-1" x="0.00001" width="2381.10235" height="2381.10236"/><path class="cls-2" d="M1507.98974,796.70684c23.80469,0,36.25018-13.52661,41.38922-21.642l2.704,18.66565h35.70935c-.54083-11.09113-1.08111-25.15851-1.08111-42.47083V661.44713h-41.38971v78.72144c0,3.24438-.27222,6.49292-1.35383,8.9284-2.7041,6.48871-9.197,14.33545-20.56085,14.33545-14.336,0-20.55658-11.63189-20.55658-30.83838V661.44713H1461.461V739.087C1461.461,779.93584,1481.20831,796.70684,1507.98974,796.70684Z"/><path class="cls-2" d="M1375.20654,796.70684c17.8526,0,34.35546-2.97632,47.87841-8.38758l-5.40765-27.86261a116.52621,116.52621,0,0,1-36.52289,5.41126c-19.20636,0-35.9779-8.1153-37.33172-25.159H1429.037a97.66248,97.66248,0,0,0,1.35382-16.23016c0-32.73358-16.2301-66.00794-58.97369-66.00794-45.98792,0-66.81684,37.05957-66.81684,70.60614C1304.60033,770.46666,1330.29968,796.70684,1375.20654,796.70684Zm-6.22486-110.91425c18.93836,0,23.26441,16.77149,23.26441,26.78149h-48.692C1344.63567,701.48247,1351.66943,685.79259,1368.98168,685.79259Z"/><path class="cls-2" d="M1222.94408,767.76256c-12.17327,0-27.86315-5.41125-35.43762-10.01l-7.30182,29.485c10.01007,5.4118,25.42713,9.46924,42.73944,9.46924,37.87256,0,57.35175-18.39759,57.35175-43.01166-.27271-19.47919-10.8194-32.19275-35.97791-40.84888-16.23065-5.68408-21.37384-8.9284-21.37384-15.149,0-6.76513,5.684-10.82306,15.68934-10.82306,11.36438,0,22.72406,4.3302,28.67614,7.57453l7.30646-28.40338c-8.11536-4.05793-21.91467-7.57453-37.33234-7.57453-32.73352,0-53.83465,18.66565-53.83465,43.55243-.26807,15.42121,10.27807,30.2981,37.60449,39.49921,15.41711,5.139,19.47455,8.38342,19.47455,15.149C1240.52807,763.43242,1235.389,767.76256,1222.94408,767.76256Z"/><path class="cls-2" d="M1069.06335,796.70684c23.80517,0,36.25067-13.52661,41.38971-21.642l2.70355,18.66565h35.70984c-.54084-11.09113-1.08167-25.15851-1.08167-42.47083V661.44713h-41.38971v78.72144c0,3.24438-.27221,6.49292-1.35382,8.9284-2.70355,6.48871-9.19647,14.33545-20.5603,14.33545-14.336,0-20.55664-11.63189-20.55664-30.83838V661.44713H1022.5346V739.087C1022.5346,779.93584,1042.28185,796.70684,1069.06335,796.70684Z"/><path class="cls-2" d="M825.90667,724.47875c1.35382-22.72357,2.16687-50.85889,3.24853-75.47711,4.86677,23.80517,11.09162,49.77722,17.04371,71.41912l19.475,70.334h32.19269l22.18274-71.147c7.03375-21.36969,14.60828-47.34186,20.28864-70.60614.813,26.51287,1.62188,53.0216,2.43493,74.93628l2.7041,69.7926h40.308l-10.01-182.32929h-53.831L902.4649,671.99742c-5.95209,20.28852-12.17273,44.366-17.31177,65.467-4.871-21.37378-10.55084-44.36542-16.23071-65.19855l-17.85675-60.86469H796.14941L784.517,793.73052h38.14532Z"/><path class="cls-2" d="M2113.24517,1166.32756c-25.74353,3.1308-52.87817.69587-80.01318,2.087-4.17469,2.08752-9.74048.6958-14.61084,1.04376-10.78467,1.04376-19.13379,3.1308-30.266,3.1308-4.52259-.3479-8.34925,3.47876-13.21961,1.39172-30.26538,2.087-62.271,4.52253-92.88428,7.65332l-.6958,1.39173c-20.17724-1.04376-38.96264,2.7829-58.09643,3.1308-9.39307,2.78289-20.873-2.08753-29.22217,2.435-17.39429,1.04377-34.78845,3.47925-51.83423,4.87043-4.52252,1.73962-11.48-.69587-15.6546,2.08752-14.61133-.3479-28.17835,1.39124-42.78961,3.13086-9.04511-2.43549-17.74219,1.04376-27.13465.3479-4.52252,4.52252-10.7846.69586-16.69836,1.73914-7.65387,4.87042-18.438,1.39166-27.13513,4.52252-10.43622,1.73956-21.22089,3.4787-32.353,3.4787-3.82666,3.47931-10.78412-.34742-14.26337,3.47931h-20.87249c-10.43671,2.43487-23.30841,1.73907-33.74463,3.47869-5.56635,2.087-13.21967-.3479-18.438,2.087l-15.30664,1.39172c-2.08759-.3479-4.17462.34791-4.87042,2.087-7.65339-.3479-14.61084,2.08753-22.96,1.39172-13.2196,2.78284-28.52624.69581-42.09387,3.1308-8.69708,1.04376-18.438,1.04376-26.09131,3.47925-4.17462,0-8.69714-.3479-11.82794,1.73914-9.39294-1.04328-16.6983,1.39166-25.74341,1.04376-23.65582,4.52252-47.6596,4.87042-70.96753,9.39294-25.04754,1.39118-49.05181,6.26166-73.05566,8.6966-7.65332,3.13134-18.43744,2.43542-26.43872,5.21838-8.69708-1.04376-15.65509,2.08759-22.96051,3.82666-3.47876.348-7.65332-.69586-10.08832,1.0437-32.005,2.43555-60.1839,12.87177-93.58063,13.56763-2.78289,2.43494-8.34918.69531-11.13208,3.82666a569.746,569.746,0,0,0-60.87927,8.34918c-9.7409,3.1308-20.525,3.82666-30.96179,5.9137-3.47876,3.82721-11.13208,0-14.61078,3.82721-12.8717-.34845-22.26471,5.21783-35.13641,5.56579-6.95746,2.087-16.00244,1.04377-21.5683,4.87043-13.56751-.348-24.70007,2.78289-37.22339,5.21838-3.13135,2.43494-8.69708,1.39117-12.17584,3.4787-23.30847,3.13086-45.92053,8.34918-67.83728,14.26294-12.17585,1.73962-22.26465,4.17456-32.70087,8.69708-8.69708,0-15.65454,2.78339-22.61261,5.21838-31.6571,8.00122-63.66211,14.95874-94.97131,23.65577-3.82721,1.73968-10.08881-.34784-12.17639,3.47882-13.91492,1.39172-25.74286,5.21838-38.61457,8.34918-56.00934,14.95923-115.84485,25.04754-167.679,51.83472-6.61011-1.39167-6.61011,7.30542-12.1764,7.30542-2.087,3.82666-7.30542,3.13079-11.48,3.13079a6.40562,6.40562,0,0,0-2.78289,6.26215c4.87042-.3479,3.13079,6.95746,9.045,4.17462,4.87042,4.17407,12.52374,1.04328,18.09-.3479-2.43543,0-2.08753-3.13086-1.39167-4.52258,2.087-.3479,3.82666,2.0871,4.86994,3.82666,14.26337-2.087,27.13507-6.95746,41.3985-8.34912,24.69909,0,43.13714-14.95874,67.48883-14.6109l1.39166-1.39167c6.26166-.3479,11.48-3.13079,17.74219-3.4787,7.30542-1.39172,14.95874-3.13134,21.9162-4.87048,21.22088-1.73962,42.09387-4.52252,62.271-9.74084.6958-1.39124-.348-4.52253,2.78284-3.13086,2.08759-.6958,1.04382,2.08758.69586,2.7829,5.21839-2.087,11.48-.69532,16.69837-2.43494,19.48132-4.17468,39.05224-7.3194,57.83764-12.53729l1.6499.01348c19.13385-3.47869,38.26722-8.34918,58.09693-10.43621,2.43493-2.78339,8.69659.69537,11.13208-2.78339-1.04382-2.087-3.1308-2.087-4.52252-3.47876-1.04377-1.39172.3479-2.43494.3479-3.82666,1.04382-.3479,3.1308-.69586,4.17462.3479,1.04376,2.7829,5.56628,3.13086,3.4787,6.95752,19.82922-1.73962,36.87549-6.95752,56.70465-8.34918-1.73908-6.60956,4.52252,1.73962,8.00128-2.087,3.47876-2.08764-.3479-6.61011,1.39172-10.43677h2.7829c1.73963,1.04377,3.4787,2.43549,3.4787,4.87049-.34741,1.39166-1.73907.6958-2.78284.6958,0,1.04382-.348,2.435.3479,3.13086a17.5575,17.5575,0,0,0,9.74091-2.087c12.17584.3479,24.00378-.348,34.44-3.82666,6.61005-2.78345,14.61133.6958,20.525-2.78345,8.00177,1.39173,13.56756-2.78289,20.17712-4.17456,15.30713.69587,29.22211-4.87048,44.5293-5.21838,6.95752-2.7829,17.39373-.69531,21.22088-6.95746,1.39118,0,2.7829-.348,3.1308,1.04376,17.74164-1.73913,37.22345-4.17462,54.61768-9.045,4.17407-2.087,10.08825.3479,13.91491-2.087,6.958-1.73962,14.61139-2.08758,21.56885-2.78338,4.17456,1.39166,2.087-4.5221,4.87042-4.17468,1.39118-.34742,1.73914,1.04382,1.73914,2.08764,6.26215,1.04321,13.56757-2.08764,20.87293-2.08764.69586-1.39167,0-4.87037,3.13085-3.4787-.34741,4.17462,4.17511.69586,6.61005,1.39172-.69586-2.43549,2.08759-2.08759,3.82666-2.08759l.348-3.13079c2.087-1.04377,2.087,2.08758,3.82666,1.39172,0-1.04376.69586-1.39172,1.04376-2.08759,3.1308-.6958.69587,3.47876,2.0871,4.17456l31.30963-5.21832c-1.39166-1.39117.69538-2.7829,1.39118-4.17456,1.39178-.34741,4.17462-.69537,4.87048.6958-.69586,1.04376-2.435,1.39173-2.087,3.13135,9.0445,3.47876,4.17457-8.00177,10.43622-8.00177,2.78339,0,4.87043,3.13135,3.47876,5.56628-1.73913.69587-2.7829-1.04376-3.47876-1.39166l.3479,2.08753c1.73963,0,3.82666.348,5.21839-.69587,16.35046,0,31.6571-3.47876,46.9638-5.91369l1.39167-1.73963a55.74812,55.74812,0,0,0,21.56884-1.04376c-1.39172-3.1308.69587-6.26172,1.73908-8.34918,6.61011-.34741-.69531,4.52252,1.73962,8.00177,13.56757-1.73962,26.78668-4.52307,41.05011-5.21838,7.65332-3.1308,19.82916,1.73913,26.43927-4.17518,20.17713.69593,38.61457-2.43487,58.44379-3.82611,13.2196-1.04376,23.65631-2.78338,36.87543-3.13128V1285.999c9.045-1.04376,20.52557-3.82721,28.87426.6958,15.30719-.34784,28.52625-5.56622,44.5293-4.87036,3.13086,0,4.522-3.13086,6.60956-3.82672.69592,0,1.04376.69586,1.04376,1.39117,13.915-1.39117,27.48254-4.17456,42.09387-4.17456,2.7829-4.86993,10.08832-2.087,14.26288-3.13079-.3479-1.04328-1.73907-.69587-2.43494-1.39173,1.04328-1.04321-.69586-4.17456,2.087-3.4787,1.73963-.348.69592,1.73963,1.04376,2.78339h1.04377c1.73913.3479.69586,2.087,1.39123,3.1308,13.21961-.69586,28.17835-.3479,40.70215-3.4787a38.73937,38.73937,0,0,0,12.8717-1.04382c13.56751,1.39172,24.70014-4.17456,37.91925-3.4787,3.13129-1.73963,12.52375,1.04376,8.69709-6.26215-9.045-.348-16.69837,4.17456-25.74341,2.43549l-.34741-2.08759c3.82617-2.783,7.65283-3.1308,12.87121-2.783,1.73963-8.00116,9.045-2.08746,14.95923-3.82666,1.39117-1.73956,1.39117-3.4787,4.17462-3.4787,1.39124.348,2.7829,1.04328,2.087,2.7829.69586,2.435-2.435,3.13086-3.82666,4.52246-1.39173,2.0871.69586,4.17468,1.39166,5.91376,4.17462.69586,7.65338-1.39117,10.43622-3.1308.69586-1.39117-.3479-4.87042,2.43555-4.52252a6.41782,6.41782,0,0,1,1.39117,4.52252l15.30713-1.04327c3.47876-1.04376,6.95752-3.82715,9.74042-5.21833.69586,0,2.08752,0,1.73962,1.39118,5.21838,1.04376,8.34918-3.82617,13.915-2.087,2.43542-4.87048,9.74084.69586,10.4367-4.52252-2.08752-1.04376-1.04376-3.47876-1.04376-4.87048,0-.6958,1.04376-1.39118,2.08753-1.04376a2.30631,2.30631,0,0,1,3.13086,3.13128c.69537,2.783,3.4787,2.0871,5.91369,2.0871,5.56629-4.87042,16.69837-1.73914,18.09-10.78418-3.1308-.6958-6.61005,3.47876-8.00122-.3479-1.39172-2.08759.69586-3.82666,1.73962-5.56629,5.56586.69587,9.39252-4.17468,15.65461-2.435,5.91369-3.13129,13.56756-1.04377,20.17712-1.73969a23.01451,23.01451,0,0,1,14.95874-6.26153v3.82666c3.47876.3479,5.91418-2.08759,9.74084-1.04377,4.17469-2.08758,6.6095-7.30542,12.52381-5.21838,6.95752,6.958,12.8717-3.47876,19.82922-3.82666,10.08826,6.61005,18.43787-4.87048,28.87415-2.087,3.47876-4.87048,10.78418-1.73962,16.00256-3.13086,7.65332-2.78338,18.78589,2.087,24.69959-4.17456,8.00122,2.087,16.00256-.3479,23.308-2.43548,5.21838-1.39173,12.8717,1.04376,17.04626-2.087l33.04883-.69586c13.21961-4.17456,28.52637-3.47876,42.78967-5.21838,22.61268-6.95746,47.31226-7.30536,70.96814-10.78412,2.43494-2.43555,6.6095-1.04376,9.74036-1.39173,7.30591-3.47869,17.74207-1.73962,26.43921-3.47869a5.31052,5.31052,0,0,0,3.47888-6.95752C2127.16045,1164.58794,2118.81133,1166.67546,2113.24517,1166.32756ZM394.01134,1447.41643H397.838C397.4901,1448.45971,394.35925,1448.80761,394.01134,1447.41643Zm9.74042-2.08758c-1.73913-2.087-1.04333-6.26215,2.78339-4.52253C404.44756,1442.546,408.62218,1447.41643,403.75176,1445.32885Zm14.95923-2.087h-1.73962c-.69586-3.47925,2.78338-3.13129,5.56628-3.13129C423.58141,1442.89391,420.798,1443.58977,418.711,1443.24181Zm172.8974-34.09259h-3.47876a2.87109,2.87109,0,0,1,3.47876-1.73962Zm18.7854-5.91419v-1.73913a2.21929,2.21929,0,0,1,2.78339,1.73913Zm11.82843-5.21789H620.4826c-1.04376-3.4787,2.7829-6.95795,4.52252-3.13129C625.00512,1396.62548,623.6134,1397.32134,622.22222,1398.01714Zm13.567-5.56629h-3.1308l.348-2.43548h2.78284Zm3.47882,1.39173c-3.13086-.348-1.04334-4.52258-1.73914-5.91425.6958,0,1.73914-.3479,2.087.348C654.57519,1390.71123,639.26806,1393.84258,639.26806,1393.84258Zm39.31091-14.26343h-1.73962v-1.04376H678.579Zm41.05-5.21838v-1.39118h2.7829C722.064,1374.36077,721.36816,1374.70873,719.629,1374.36077Zm53.57385,1.04382h-2.08752l-.34741-5.21838h2.087C773.20287,1372.27373,773.55083,1373.31755,773.20287,1375.40459Zm16.00251-17.04633c-2.08753.348-2.08753-.69586-2.78284-2.087,1.39117,0,2.43494-.3479,2.78284,1.04327Zm28.1784,7.30542c-1.04327.69587-2.435.3479-3.82666.3479-1.39117-2.78283,2.43494-2.43493,3.82666-2.43493Zm1.39166-46.9638h-2.08752v-2.08753h2.08752Zm21.5683,39.65838h-2.087v-2.087h2.087Zm51.83478-1.04376H890.091v-1.04327h2.08752Zm65.05383-12.8717h-1.04376c-1.04327-2.7829,1.04376-3.82617,3.47925-3.47821C958.972,1342.35576,959.66784,1345.13866,957.23235,1344.4428Zm72.35981-13.21912h-1.73963v-1.04376h1.73963Zm10.78411-10.43677c1.39173-4.52246-5.91369-3.47876-3.47869-7.65332,2.43493-.3479,4.17456,3.13086,6.95745,2.7829C1043.855,1317.65612,1043.855,1322.5266,1040.37627,1320.78691Zm8.34919,9.045-.3479-3.4787h4.52252C1051.50835,1328.09233,1051.85632,1331.22368,1048.72546,1329.832Zm12.1759-2.43494c-1.39172,0-1.73969-.3479-2.08759-1.39172h2.08759Zm34.09259-20.873-2.08759.348v-1.73963h2.08759Zm8.69708-2.08753c.3479-1.73913,1.04328-2.087,2.7829-1.73913C1106.126,1304.0891,1105.43017,1304.43651,1103.691,1304.43651Zm19.82917,12.17584h-1.73957v-1.04327h1.73957Zm.348-2.78289h-2.08753l-.348-4.87043h2.43549Zm18.43744-14.95874h-3.1308l-.3479-2.78339h3.82666Zm25.0476-2.78339c-3.13086,1.04376-4.52252-1.7392-4.17462-4.17462h4.17462Zm14.61133,13.5675h-1.39172v-1.39166h1.73968C1182.31249,1308.61107,1182.6599,1309.65483,1181.96453,1309.65483Zm5.9137-9.045c0-2.087,3.13134-3.13086,3.13134-.69537Zm7.30542,8.00122.3479-3.4787c1.73962-.348,2.43548.3479,3.13135,1.73963C1199.0108,1309.30693,1196.57531,1308.26317,1195.18365,1308.61107Zm18.78589-10.78412h-2.087v-3.13141h2.087Zm17.74218,4.52253-6.2622-.348v-3.13079c2.08758.69531,6.2622-1.73963,6.2622,2.087Zm136.36982-12.52381H1365.994V1288.434h2.08753Zm13.21911-10.78467h-1.39111v-1.39117h1.39111Zm55.66144,0v1.04377h-2.08759v-3.1308C1436.26623,1276.25811,1437.31,1277.30193,1436.96209,1279.041Zm5.56573,5.56629h-1.73907l1.73907-.6958Zm25.39551-57.40045h-2.087v-1.73969h2.087Zm70.62012,38.61511h-1.73908l.34791-5.21839h2.087Zm131.84735-8.69714h-2.087v-1.73963h2.087Zm8.00128-14.26343c-2.435,0-7.65338,1.04382-5.91369-2.78284,1.73907.3479,5.21783-1.04382,5.91369,1.39166Zm20.17761,7.65387a25.28,25.28,0,0,0-8.69714-1.39173c-.6958-.6958-.3479-2.08752-.3479-3.13128,4.86993,2.43548,11.82794.69586,16.35046-1.73914h3.82666C1709.00591,1249.12352,1701.70049,1246.6881,1698.56969,1250.51525Zm32.353-7.65387c-6.61011,2.43548-4.87042-8.34918-11.82794-5.5658-1.73963-1.04376-.3479-3.13129.34741-3.82715,5.56629.3479,13.91553-2.087,13.91553,5.21839A4.089,4.089,0,0,1,1730.92266,1242.86138Zm172.89746-43.13709c0,1.39118,0,3.4787-1.73974,3.4787-1.39112.348-2.43494-2.08752-2.43494-3.4787C1898.25372,1195.20177,1904.86333,1196.245,1903.82012,1199.72429Z"/><path class="cls-2" d="M1790.06231,1225.81511c-6.60962,5.91425-18.0896,2.43549-25.74292,7.30591,0,.69531-.3479,2.087.34741,2.435,4.52252-3.47876,9.045,1.39166,14.26343.6958,9.045.348,15.65454-6.61005,24.69958-6.95746,1.39173-1.04376,3.82679-3.13141,2.78284-5.21838C1800.15118,1222.68431,1796.32452,1227.55474,1790.06231,1225.81511Z"/><path class="cls-2" d="M727.9782,1235.20806c5.91376-1.73963,14.26294,1.73962,17.7417-4.87043,1.04376-3.47876,2.08753-8.69714,0-11.828,0-1.739,1.04376-2.78284,2.78339-2.087,2.43493,2.087,5.91418,5.56579,6.2616,9.39245,1.39172-.348,3.47875.69586,3.82666-.69531,3.13134-.34845,5.21838-3.82721,5.56628-6.61017-3.82666-17.74206-1.04376-35.4837,2.435-52.18207-1.04328-29.57006,3.82666-64.35852-12.52326-89.05816a39.73518,39.73518,0,0,0-41.3985-20.17713c-13.915,4.52253-25.74292,15.30719-33.39624,28.17884l-.34845,2.08709c-8.69659,10.08832-9.04449,24.00379-10.78418,37.22345,1.04383,31.30915,9.74091,59.83539,29.22217,83.49182C711.2799,1212.596,711.9757,1232.77312,727.9782,1235.20806Zm32.00507-56.35675v.69586h-1.73963ZM728.67406,1214.683h1.39118v2.435h-1.39118Z"/><path class="cls-2" d="M746.97881,1013.08562l1.43109.81873a58.07091,58.07091,0,0,0,13.58936,4.18963c5.57147.86127,12.03015.589,17.86865-3.03851,5.5777-2.4101,8.121-6.84338,9.57135-9.69525.58283-1.14643,1.09619-2.32764,1.72772-3.41083a7.87976,7.87976,0,0,1,.64551-.89648,9.68524,9.68524,0,0,0,3.07068-5.63166c1.64581-19.75195-6.7345-34.71069-19.26868-47.24426-1.67065-1.764-3.24591-3.44513-4.95129-5.05255a37.45456,37.45456,0,0,0-6.40478-4.96576c-5.31067-3.17334-11.60547-4.52832-19.99555-2.20941-6.69983,2.79169-10.16925,7.9613-12.387,12.2417-.98773,1.90655-1.85474,3.91424-2.76782,5.88458a29.36388,29.36388,0,0,1-2.25818,4.2,10.67715,10.67715,0,0,0-1.36212,3.861C723.8814,982.62163,732.394,1000.27977,746.97881,1013.08562Z"/><path class="cls-2" d="M364.44128,1270.69182c4.17456-6.60956,3.47876-15.30664,8.69714-21.5683,4.17456-3.13128-2.08759-4.87042-.348-8.69708,8.34918,2.087,4.52252-8.00128,10.43622-11.13208,5.56628-11.13257,9.39294-22.96051,14.26342-34.44049,2.7829-2.7829,3.1308-6.95758,2.7829-11.13208,4.52246-5.91425,4.52246-14.26343,5.56629-21.56885,4.17456-3.13128.69586-9.74084,4.52252-12.52374.3479-3.47882,3.1308-6.95807,1.04376-10.08881,2.43494-1.39123,1.39118-5.21789,4.522-5.56579l8.00177-24.00379c8.00129-34.09259,12.52332-73.0556,7.30542-109.58319-4.52252-23.30792-12.17584-45.22467-27.83038-64.358-1.73968-6.958-1.39172-14.95929-5.21844-21.56891-3.82666-5.21832-10.08881-14.61126-17.04627-8.00116l-8.69708,23.30786c-17.04633,71.316-37.91931,141.24036-52.87805,213.59961-5.56629,20.17762-13.56751,39.65888-16.69837,60.87976-10.43622,48.70343-32.3529,92.18842-41.398,141.58771-21.22082,69.92426-37.22339,141.9361-55.66137,212.90418-5.21784,25.74292-18.4375,49.7467-15.65461,77.92559,8.34919-2.08758,8.00128-12.8717,13.56757-18.78594,3.1308-2.43494,3.47876-8.34919,8.00128-8.00129.3479-1.39166-.69586-3.4787,1.39166-4.17456a19.47467,19.47467,0,0,1,4.52253-12.17584c3.13079-10.78418,9.04455-20.17712,10.78417-31.6571,5.21833-1.39179,3.1308-9.393,8.34919-8.69715,5.91418-2.087,2.7829-10.0888,2.43493-14.61133l9.39295-9.74035c2.08758-1.73963-1.04376-5.91425,2.43548-7.30542-.3479-5.91425,7.65339-9.045,4.522-14.95923h2.43548c1.73908-3.82672,4.87043-7.30542,3.4787-11.82794h2.435l.34845-6.26166c-1.73962-4.17462,4.17407-4.17462,2.087-8.34918,6.95745-3.82666,1.39117-13.21961,8.34918-16.35041,1.73907-1.73968-1.04376-3.13134-1.04376-4.87048,4.87042-3.82666,6.26214-9.7409,6.26214-16.0025,3.4787,1.39117,2.78284-3.47876,4.522-4.87042,4.52253-6.958,10.43677-14.61139,8.69715-23.30793,6.26214-3.4793,6.61-11.48053,10.78467-16.69842.3479-2.78339,4.522-4.52252,1.04376-6.26215.69531-1.04376,2.087-.3479,3.1308-.6958-2.08753-6.95752,7.65332-8.00128,5.91369-14.95874,1.73963-3.82672,4.87049-7.30542,4.87049-12.1759,8.34918-4.17456,5.91418-13.21961,9.045-19.82916a36.2669,36.2669,0,0,0,8.69714-13.91547c1.39118-2.08759,0-5.21844,2.435-6.95752-2.783-5.56628,4.52246-5.56628,4.87042-10.08881-2.7829-7.30542,9.04505-6.95745,5.21832-14.26287C355.74413,1291.5653,359.91875,1280.08477,364.44128,1270.69182Zm53.57385-174.98443h2.087v1.73913h-2.087Zm-16.35046,25.7434h1.73968v1.39118h-1.73968Zm0,36.875v.69587H399.925ZM386.358,1185.46086h1.39167c-.34839,1.39173,1.73913,3.82666-.34839,4.17463H386.358Zm-4.17462,27.48255-.69586,2.43548h-2.087C380.09588,1214.33513,379.74792,1211.90013,382.1834,1212.94341Zm-14.61133,15.30719h1.39173l-.348,2.7829h-1.73908ZM356.44,1271.04027v.69531h-1.39166ZM230.8543,1488.11852V1486.379c1.39173,0,2.43549-.348,2.43549,1.39166C233.28979,1488.46648,231.89806,1487.77062,230.8543,1488.11852Zm15.65509,28.87427h-1.73962v-1.39173h1.73962Zm11.13208-15.65509c-2.78338,1.39166-1.39166-2.087-2.43493-2.7829,1.39117-.3479,2.43493,0,2.43493,1.73962Zm87.31854-211.512-1.39172-1.04376H344.96Z"/><path class="cls-2" d="M277.8186,970.46965c.348-1.73913,2.78338-2.087,4.52252-1.39172-.69586,3.47925,2.087,4.17456,2.7829,7.30591l11.82794.348c-.69538-3.13086,2.78338-1.73969,4.52252-2.08759,3.82715-2.78289,2.43549-11.82794,9.045-10.08831,2.435-3.82666,4.17462-6.95795,7.30542-9.74085-1.39117-4.52252,5.21839-2.43506,4.87049-6.60956,1.04376-2.43548,1.04376-8.34918,5.91418-6.26214,1.04327-1.73914,0-4.52259,1.73914-6.26166,10.0888-.69586,8.34918-13.2196,17.39422-16.35046,4.52252-7.30591,13.56757-9.393,19.13385-15.30713.34741-5.2179,6.95746-1.39124,9.0445-5.91376,1.73962-1.04376,0-3.1308,0-4.52246,0-1.04382.348-2.7829,2.08758-2.08759,1.04322,0,3.4787-.34741,3.1308,1.73963,3.82666,0,5.56629-4.17456,7.30542-6.60956,3.1308-.3479,5.91419,0,7.30542,2.435,2.08753-.348,5.21832.6958,6.26215-1.04389,6.26214,1.39179,5.91418-4.1745,9.74035-6.26153,2.08753-.348,1.73963,2.087,2.43549,3.1308,5.21783,1.73962,8.69708-2.087,12.52374,2.087,3.82666,2.43549,2.7829-2.783,4.52252-3.82666a8.39688,8.39688,0,0,1,5.9137,1.39172l-1.73907,1.39167h1.04327c1.39172-.69586,1.73962,1.04327,1.39172,2.087l2.087-.6958c0-1.04321,1.04382-.69531,1.73968-.69531,2.08753,2.7829,8.00122,1.39111,11.82788,1.04327,1.73963-1.73913,1.39173-5.21783,4.17463-5.21783,5.21832-.348,0,4.17456,1.04376,6.2616l3.13135-1.04377c1.04321-.348,2.087,1.39173,1.04321,2.08753h-1.04321c4.17407,3.13086,9.39239-.3479,13.21911-1.04376,2.78339,1.73962-.348,5.21838,1.73963,7.30542,4.522,1.39172.3479-3.47876,4.86987-2.087,3.13135,3.82666,7.306,6.2616,11.13263,9.39294,2.43493,1.73914,2.43493,6.26166,6.60956,5.5658,1.04376,2.7829-.34742,5.21838-1.39118,7.30591,1.73908-.3479,4.86994-1.04376,5.9137.34741-6.60956,2.78339,1.04376,7.30591,2.08758,11.13263.34742,4.86987,8.34912,5.91363,4.17456,11.48,20.525,58.44427,2.7829,122.80231-16.0025,176.37616-3.82721,5.21832,1.73908,14.95923-7.306,17.39423-1.73907,4.87042-.3479,8.69708.348,13.5675,1.04377,4.52252-6.26165,2.435-4.52252,7.30536,2.08753,3.13086,6.26215,1.7392,9.39295,2.0871,9.045.69586,4.17462-13.21967,14.26294-9.39246,6.26208,8.00128,11.13256-3.82721,16.69885-4.17462,1.39117-.3479,1.39117,1.04333,1.39117,1.7392,3.82666.6958,6.60956-3.13086,9.04505-4.87049,6.60955,0,12.52374-2.43493,18.7854-1.39117l1.04376,6.95746c7.65332,0,14.61084-1.73963,20.17712-7.30536,6.958.3479,10.43677-7.65338,16.69837-8.69715,1.73962-5.56628,8.34918-4.87042,9.045-10.0888,4.52252,2.08752,4.52252-3.1308,7.30542-5.21784a3.65489,3.65489,0,0,0-2.435-5.21844c-1.39166-1.0437-1.04376-3.82666-.3479-5.56622h1.04383c2.087,0,3.13073,2.43548,3.4787,4.17456,6.26159.69586,2.78289-7.30542,8.00128-9.045,3.1308-14.26288,9.045-27.13458,9.045-42.78924a35.63346,35.63346,0,0,1,.348-13.56751c.3479-46.26843-8.69714-89.75348-38.61511-123.49811-20.873-21.22088-46.9643-32.70092-73.403-41.05011-4.87048,0-8.69714-2.78283-13.21966-4.17462-16.35047-2.087-28.52625-14.61127-46.6164-13.2196-24.35168-4.86988-45.572-17.74213-71.66339-17.39417l-5.91418-2.7829c-18.09009-1.73962-35.48383.69587-50.44257,7.65332-4.523,1.04377-5.21832,8.34919-11.48047,5.56629a128.96069,128.96069,0,0,0-29.56958,27.13458c-12.87225,26.43927-29.91851,63.31476-8.69763,91.1452C276.42687,970.81755,277.8186,971.16545,277.8186,970.46965Zm335.01068,64.35852h1.73907v1.39112h-1.73907Zm-3.13135,58.79169h2.08758a1.45877,1.45877,0,0,1-2.08758,1.04376Z"/><path class="cls-2" d="M1724.31255,1111.362c5.91425-.3479,10.43628,3.82666,15.30719,5.21838,5.9137-1.73962,13.915,2.087,18.4375-3.47876,10.08881-1.04382,17.04633-9.39294,27.83051-8.69714,3.47876.348.3479,4.87048,2.43542,6.60962,3.13074,3.82666,8.34925.3479,11.48-.348,3.13086-1.73908,1.73914-5.9137,3.13086-8.34919a5.15125,5.15125,0,0,1,5.91419,2.78345c16.35046,1.39118,23.308-13.56756,34.78808-22.26471,3.82666-9.74084,10.43653-18.08954,14.95923-27.8305,2.08692-2.08747-1.04394-6.61,2.78272-8.34912a140.01362,140.01362,0,0,0,0-69.92426c-8.34912-28.87427-26.43921-53.92181-38.26709-81.40436-5.56641-11.13263-12.52381-21.56878-17.39429-32.70135-3.82666-4.86994-3.13086-11.82795-7.30542-16.69837-11.48-4.17462-19.8291,6.958-26.78662,14.61133-14.61133,33.74463-29.22217,67.48877-38.963,103.321.69586,1.39124.69586,4.52259,2.78283,4.87049,6.26215.34741,15.30719.69586,18.09009-5.91425,4.87042-2.43493,9.74091-6.95746,11.82794-12.52374,3.13135-2.7829.69587-9.74091,5.56629-10.08832,5.91363,11.48,6.26166,26.78668,14.26288,38.26721,8.69714,19.4812,5.91418,44.87671-1.73914,64.01007-7.30542,29.57007-36.87543,45.22467-59.83594,61.923C1723.26934,1106.49157,1720.83385,1109.97081,1724.31255,1111.362Zm132.54322-105.40808h2.08715v1.04327h-2.08715Zm-4.52246,25.04754a1.64188,1.64188,0,0,1-2.08716,2.087C1850.94146,1032.04473,1850.24615,1030.30565,1852.33331,1031.00145Zm-2.43506,19.48127h1.73913v1.73913h-1.73913Zm-8.697,3.13085h1.3916v1.04377h-1.3916Z"/><path class="cls-2" d="M1943.82635,1096.75066c16.69836-7.30548,37.22339-6.2616,52.87805-17.04578,33.04883-10.78466,65.74963-21.56878,96.01562-39.311,5.9137-4.86993,12.17579-10.43622,18.438-13.915,7.30542-8.34918,2.78284-20.525,6.95691-29.918-6.6095-5.56628-2.43493-17.39428-6.6095-25.04761-4.17456-8.00122-2.78295-18.78533-8.34924-26.43927-3.13074-10.08825-8.697-19.8291-11.132-30.61334-6.95752-10.7846-9.741-22.96045-15.65466-34.09259-11.4801-7.65332,2.087-18.08948,3.13074-26.78668,0-8.697,6.60962-15.30713,4.17468-24.69952-10.78418-9.74091-20.525,2.087-31.3092,2.78283-9.04505,2.7829-10.78467-9.74084-19.82972-6.95746-10.08825,16.00251-17.74157,34.44-29.22155,50.44306-8.34986,17.39368-19.48194,33.74414-29.91809,50.0946-5.91419,5.56629-8.34913,12.17578-12.52381,18.438a268.66281,268.66281,0,0,0-37.91919,85.231c-5.21838,19.82916-6.95752,45.92053,2.78284,64.35791C1929.91094,1098.83825,1937.56475,1096.40325,1943.82635,1096.75066Zm161.06946-112.7135c1.04382.348,2.43505,0,2.43505,1.39172l-2.43505.69531Zm-18.438,39.65838h1.73962v2.08759h-1.73962Zm-6.2616,1.73963h1.73914v1.39117h-1.73914Zm-52.878,32.353c-2.08753.69586-1.7395-1.04377-2.08753-2.08753h2.08753Zm12.1759.348h-1.73962v-2.43549h1.73962Zm2.78284-145.067h2.08765v2.08759h-2.08765Zm-28.87427,95.31982c7.65344-20.17712,16.69849-40.00628,22.96069-60.53137l-1.73974-2.08752c7.65332-1.04376,4.17456-10.08832,8.34924-13.21967.3479-4.17456.6958-8.69659,3.13074-11.48,3.13086-1.04376,2.43555,3.47876,3.82666,5.21839,6.26221,6.95745,4.17456,17.39422,8.34924,25.39544,4.87049,5.21839,3.47876,13.21967,6.958,19.13336,4.52258,16.69837,1.04334,33.39673-4.52258,48.356-3.13135,12.52326-16.69824,17.04572-26.09131,22.96-4.17456,1.39118-10.08887-.69586-13.56751,1.73963-3.47876,0-5.21789-3.13129-6.60949-5.56629C2008.88018,1028.91393,2015.4898,1018.82561,2013.40264,1008.3889Zm-5.91357-22.61261v2.08753c-2.08765.69586-1.04383-1.04382-2.08765-2.08753Z"/><path class="cls-2" d="M1072.38134,1008.7368c-13.21967,8.69715-11.13208,24.35169-21.91626,34.44056-9.74084,22.96-8.00122,52.53,4.86993,73.403.69587,7.30542-7.30542,10.78406-11.48,15.6546-19.48126,11.13208-39.31042,20.87293-60.53131,27.13459v1.04376c-12.5238,2.43548-30.26593,6.26214-41.746,0-15.6546-2.783-28.87414-11.48-43.13708-18.0896-10.43677-6.95795-21.91675-12.17578-32.00556-19.82965-1.39117-3.47876.3479-6.60962,1.04376-9.74036,5.21839-.69592,3.47876-6.95752,7.30542-9.7409.3479-4.17456,4.17456-6.95746,4.52253-11.48,6.6101-6.26172,8.34918-15.65461,14.61084-22.61261,3.13128-1.73914,0-6.60956,4.523-6.95746,6.95745-11.82795,18.0896-21.91626,20.87243-35.48383,2.78339-2.78339,3.82721-5.91418,4.52252-9.393,1.73963-2.78284,4.52253-5.56623,8.00129-3.13074,3.47924-6.61011,10.4367-10.43677,16.3504-14.26343,3.47876-3.82666,10.08887-8.69708,8.69714-14.95874h3.82666a5.75742,5.75742,0,0,0,.3479-6.95746c1.73963-2.43554,2.43549,1.39112,4.87049,0,4.17456-5.56628,10.0888-10.78467,9.74084-18.09009a2.15046,2.15046,0,0,1-1.73962-2.78289c1.04382-2.08753,3.82666-.69593,5.56628-1.04377.348-7.30548-.6958-14.61139.69586-21.22088-1.73962-8.34918-10.78466-8.69721-17.04626-10.43677l-.348,2.08759c-1.39167-.348-2.7829.3479-3.82666-.69587,0-.69586-.3479-1.39172-.3479-2.087-3.13135-.3479-7.30591-1.04376-9.393,1.73913-9.74041-1.39123-17.74218,5.91419-26.43878,7.65332-3.47925,2.43549-6.61005,8.34912-11.48053,9.04505-16.0025,11.48-34.092,27.483-40.00629,46.96429-7.30542,19.1333-16.3504,37.9187-20.525,58.79224-4.52252,5.56573-3.82666,13.567-9.045,18.78534-9.045,23.65588-16.69837,48.00757-19.1333,74.09894,0,11.48,11.82788,14.95874,17.39422,23.65582,8.00128,4.52252,16.3504,9.7409,24.35169,13.91553l2.087,1.39166a147.06833,147.06833,0,0,0,86.97058,18.08954c9.045.348,17.74213-.6958,25.74341-3.82666l-5.56628-.3479v-2.087c1.39172-1.04376,1.39172-2.78339,3.82672-2.08759,1.39166,1.04383,4.52246,1.04383,4.1745,4.17463,5.21838-2.087,11.13263-3.1308,16.35046-5.9137.69586-1.39172,0-4.87048,2.78339-3.82666,1.04382.34741,2.7829.34741,2.0871,2.087,2.78338,1.04376,4.52246-1.73963,6.26214-2.435l-1.73968-1.39166v1.39166c.69586,1.04321-.69532,1.39117-1.73908,1.04321-2.08758,1.04382-1.39172-1.73907-1.39172-2.78284.69586-.69586.69586-2.78289,2.43548-2.087,1.04328-.3479,1.39118,1.04321,1.04328,1.73913,1.73962-.348,3.82672,0,4.17456,1.04377l21.56885-13.21967c-1.04377,0-2.43549.348-3.1308-.3479.69531-3.47876,2.087,1.04376,4.17456-.3479,6.60956-3.47876,12.52325-10.43622,18.78546-14.6109.3479-2.43543,8.34912-5.21832,3.13074-7.65332,0-1.0437,1.04382-1.39166,2.08758-1.39166.69531-.3479,1.39118.69586,1.04328,1.39166,4.52252-1.0437,6.61-8.697,13.56756-5.91419,7.30536,10.43677,20.525,11.82795,32.005,14.95929a222.593,222.593,0,0,0,81.75274,2.7829c4.87043-2.7829,12.17585.34741,14.26288-5.21838,1.04376.3479,2.087-.3479,2.7829.3479a1.94993,1.94993,0,0,1-.3479,2.08758c.6958.34742,1.73962-.348,2.08752.69532,21.91675-8.34919,46.6164-11.48,65.05384-25.04755a5.365,5.365,0,0,1,3.47931-4.86993c1.39117-.3479,1.39117,1.39111,1.39117,2.087,10.78412-3.1308,20.17712-10.08825,31.30914-13.2196,3.82721-2.087,12.52387-4.17462,10.43677-9.04456,1.04327-1.39172,4.17462-1.04376,6.26166-.6958v1.04321h3.1308c20.17761-8.34918,39.311-19.82916,58.79223-29.56952,4.52253-2.43554,12.17585-5.21838,11.82843-9.7409h4.522c3.13134-3.82666,10.0888-4.52252,9.7409-10.08881,6.60962,1.73963,11.48-4.86993,17.04633-8.00128,1.39166-1.73907.69586-5.56573.69586-8.69659h1.39117c3.47925-1.04377,1.39167,3.13086,2.08753,4.522,8.34918-2.435,16.0025-7.30542,22.61206-13.56708l-2.43494-1.04376.69586-2.08752c1.04377.3479,2.087-.348,2.7829.6958-.3479,0-.3479.69586-.3479,1.04382,2.78333,1.04376,4.52246-1.39172,5.91419-2.78345h-1.39173c-.3479-.34741-.3479-.69531-.3479-1.39117,1.39166-.69592,3.1308-.3479,4.52252-.3479l21.91669-18.09009c0-3.1308,1.04382-6.95746,5.21838-5.21789,1.73914-2.08753,2.435-4.87043,2.7829-7.65333,1.04376.34736,2.435-.6958,3.13086,1.04328a2.3007,2.3007,0,0,1-.348,2.08758c2.7829-.348,4.52252-2.43548,5.56628-4.87048,5.91431-2.43542,11.48,1.04382,15.65461,5.21838,1.04376,4.17457,4.52252,4.87049,5.56634,8.6966,2.78284.69586,4.17456,5.91424,6.95746,7.65387.3479-1.04376-.348-2.08759.3479-2.78339,1.04376.3479,2.43494-.34741,3.1308,1.04376,1.04382,2.43494-1.73908,2.43494-2.43494,2.78339l3.47876,5.21784c9.045,10.78466,18.438,18.438,24.00373,30.26593,9.7409,10.43621,5.91424,26.43878,3.13086,38.96246-7.30542,10.78473-13.915,25.04761-27.13459,30.26593-1.04382,1.04382-1.73968,3.47882-.348,4.87054,5.91425-.348,9.39295,2.087,15.65466,1.04377,7.65332-2.43549,17.39417-2.08765,26.43927-2.08765,4.1745-3.13074,9.74079-1.739,14.26282-3.13074,6.958-3.47876,13.91547-7.30542,19.82916-12.5238,3.13135-5.56629,10.08881-5.56629,15.65516-6.26215,3.82666-2.087,7.65332-4.87042,12.52374-4.17456,13.21911-6.95746,26.78668-15.65466,35.13586-28.5263,8.34918-12.52381,2.43549-29.57007-2.7829-41.74543-13.56756-16.3504-30.61383-29.57007-47.6596-40.35479-32.35352-14.61072-62.96686-33.39667-98.10321-41.05-7.65332,0-17.74213-4.17462-24.00379,2.08752-28.5263,22.61212-58.44427,46.96381-90.10138,64.358,0,0,4.87043.69587-1.04376.69587-29.22217,17.74212-60.18341,28.8742-90.7973,43.485-29.918,16.69843-57.05255,40.35425-88.01386,55.66138-6.61,1.39178-9.39294,11.48-17.39422,6.60962-5.91419-14.61084,6.95752-27.48255,11.48-41.05005,8.00122-1.73914-.348-13.915,9.39294-11.48l.69587-7.65332h3.47876c7.30535-5.56629,16.0025-11.48,16.0025-21.56879,4.87042-4.17462,1.39117-11.48,4.87042-16.00262,1.04327-6.9574,5.9137-12.17579,7.65332-18.78589,3.82672-22.96,3.82672-48.00751-11.13257-65.40125l-15.30664-14.61139c-5.91424-3.47863-11.48.69593-18.09009-.69574-1.39117,3.1308-5.56579,1.73963-8.69659,2.08753-7.65332,1.39117-11.48053,9.04449-19.13385,9.74035-5.21784,3.13086-9.74036,8.69715-9.74036,14.95929,2.43494,8.69709-3.13134,15.65454-1.73962,24.69959-2.43494,4.52252-7.30542,4.87048-11.13208,6.2616-11.48053,3.82666-25.74341,1.04382-37.22345,4.17468C1112.38763,986.47216,1086.99267,986.12419,1072.38134,1008.7368ZM946.7962,996.21306l-.348,3.1308c-2.08758.69586-3.13085-1.39124-3.47869-3.1308Zm1.73907,200.032H946.7962l1.73907-.69537Zm4.87042,0v-1.73913c1.39173,0,1.73963.348,2.087,1.39172C955.49273,1196.59294,954.10155,1196.245,953.40569,1196.245Zm39.65839-6.95752h-2.087V1187.2h2.087Zm20.17761-10.08825H1011.85v-1.39173h1.73913C1013.24169,1178.15551,1013.24169,1178.50341,1013.24169,1179.19927Zm4.17462-1.73963h-1.73968v-1.39172h1.73968Zm32.70087-23.65594v-2.08746h2.7829C1051.85632,1152.4121,1052.20422,1154.49962,1050.11718,1153.8037Zm41.74542-13.91541h-2.087l.3479-2.43493h2.08758Zm499.21094-121.06268v.69537l-1.39117-.69537Zm-5.5658-36.87549c0,1.73914-1.39166,1.39124-2.43493,1.39124l-.34845-3.47876C1584.464,979.51464,1585.1599,980.55846,1585.50774,981.95012Zm-17.04626,66.09711v1.39172h-2.7829A1.556,1.556,0,0,1,1568.46148,1048.04723Zm-8.34918-10.08826c-.348.69586-.348,1.73957-.69586,1.73957h-1.39173C1558.02471,1038.30687,1558.72063,1037.611,1560.1123,1037.959Zm-21.22089-20.525c-1.04327,1.04376-2.7829.3479-3.82666-.348l-.348-1.04371C1536.10851,1014.999,1538.54345,1015.34636,1538.89141,1017.434Zm-12.5238-12.87171h1.73968v1.73908h-1.73968Zm-56.35675,8.697H1471.75v2.08709h-1.73913Zm-14.26337,11.828h2.08752v2.08752h-2.08752Zm-20.873,11.132h1.73963l-.3479,2.78344h-1.73963Zm-8.34918,4.87048c0,.69586-1.04321,0-1.73913.3479l-.3479-1.73913C1425.83,1039.69854,1426.17791,1039.69854,1426.52532,1041.08977Zm-4.86987,6.61011c1.39111,2.087-1.04382,4.17456-1.73969,5.21783H1418.524C1417.48083,1050.83068,1418.872,1047.004,1421.65545,1047.69988Zm-36.52814,22.612h2.08759c.69586,1.39172-.348,3.82666-2.435,2.783Zm-104.71222,47.31225h1.73914v1.04328h-1.73914Zm-.69586,3.47876h3.13086c.6958,2.087-1.04327,3.47876-3.13086,2.7829Zm-4.17456-8.00128h1.39166v2.087h-1.39166Zm-12.5238,18.08954v.69586h-1.73908Zm-22.61206,5.91425c1.73913-.3479,3.82666,0,3.82666,2.087-.3479,1.73963-1.04371,2.08759-3.13135,2.08759C1240.40881,1139.88829,1239.365,1138.49657,1240.40881,1137.1054Zm-8.34967-86.27472h2.08752c0,1.39117-.69586,2.087-2.08752,1.73907Zm-119.32306,93.23224c-.69587.3479-.69587.6958-.69587,1.39166h-1.39172C1110.99645,1144.06292,1111.34435,1144.06292,1112.73608,1144.06292Zm-1.04377,9.74078V1152.76h3.4787C1114.47515,1154.15172,1113.08349,1153.45586,1111.69231,1153.8037Zm4.52253-11.48h2.087v1.39123A1.90728,1.90728,0,0,1,1116.21484,1142.32372Zm2.78283,4.52258h-1.73962v-1.04376h1.73962Zm3.47876-69.22894c-1.39172.34784-2.087,0-2.43493-1.73914h2.43493Zm1.39173-4.87048h-4.17463v-3.82666c2.435-.34791,3.47876.3479,4.17463,2.43548Zm17.39422,81.40484h-1.39172V1152.76h1.39172Zm30.61334-152.72034h4.87043c1.04376,2.7829-1.04376,3.82666-3.47876,3.47876h-1.39167Zm-16.35046,9.74042h1.73963v1.04376h-1.73963Zm-5.21783,15.65454c2.43493-1.04321,3.13079-3.47821,2.78283-6.26159,4.17463-.69587,5.56635-5.21839,8.69715-8.00129,6.60956-3.47869,17.04583-10.08825,22.96-2.08752-.348,33.39722,10.08881,62.27094,10.43622,95.66766l3.47925,14.26343v4.52252c-.348,3.47876-2.43549,5.9137-6.26215,4.87043-12.17584-5.21833-19.48126-20.17707-29.57007-29.57007l-25.04761-26.78717c-4.17456-9.0445,1.73969-17.04633,5.21839-24.69965C1144.04528,1041.08977,1148.9157,1034.48021,1150.30743,1026.82634Zm-8.34925-10.08825.69538,2.08752c-4.17462,8.34918-8.34919,16.69837-13.915,24.6991h-2.78339c-.69586-8.00073-5.91369-16.34992-2.087-24.00373C1129.43444,1017.434,1135.34814,1016.04222,1141.95818,1016.73809Z"/></svg>